<mxfile host="Electron" agent="Mozilla/5.0 (Windows NT 10.0; Win64; x64) AppleWebKit/537.36 (KHTML, like Gecko) draw.io/27.0.9 Chrome/134.0.6998.205 Electron/35.4.0 Safari/537.36" version="27.0.9">
  <diagram name="PÃ¡gina-1" id="d-h8S4a0srsXshj4iV_k">
    <mxGraphModel dx="1185" dy="695" grid="1" gridSize="10" guides="1" tooltips="1" connect="1" arrows="1" fold="1" page="1" pageScale="1" pageWidth="1200" pageHeight="1600" math="0" shadow="0">
      <root>
        <mxCell id="0" />
        <mxCell id="1" parent="0" />
        <mxCell id="DUddIdQGAG8AFFFB7wVg-1" value="Cliente" style="whiteSpace=wrap;html=1;align=center;fillColor=#f0a30a;strokeColor=#BD7000;fontColor=#000000;" vertex="1" parent="1">
          <mxGeometry x="200" y="70" width="100" height="40" as="geometry" />
        </mxCell>
        <mxCell id="DUddIdQGAG8AFFFB7wVg-2" value="Coche" style="whiteSpace=wrap;html=1;align=center;fillColor=#f0a30a;strokeColor=#BD7000;fontColor=#000000;" vertex="1" parent="1">
          <mxGeometry x="690" y="350" width="100" height="40" as="geometry" />
        </mxCell>
        <mxCell id="DUddIdQGAG8AFFFB7wVg-3" value="Reserva" style="whiteSpace=wrap;html=1;align=center;fillColor=#f0a30a;strokeColor=#BD7000;fontColor=#000000;" vertex="1" parent="1">
          <mxGeometry x="220" y="450" width="100" height="40" as="geometry" />
        </mxCell>
        <mxCell id="DUddIdQGAG8AFFFB7wVg-4" value="Tiene" style="shape=rhombus;perimeter=rhombusPerimeter;whiteSpace=wrap;html=1;align=center;fillColor=#76608a;fontColor=#ffffff;strokeColor=#432D57;" vertex="1" parent="1">
          <mxGeometry x="220" y="280" width="90" height="40" as="geometry" />
        </mxCell>
        <mxCell id="DUddIdQGAG8AFFFB7wVg-5" value="" style="endArrow=none;html=1;rounded=0;exitX=0;exitY=0.5;exitDx=0;exitDy=0;" edge="1" source="DUddIdQGAG8AFFFB7wVg-4" parent="1" target="DUddIdQGAG8AFFFB7wVg-3">
          <mxGeometry relative="1" as="geometry">
            <mxPoint x="247" y="380" as="sourcePoint" />
            <mxPoint x="280" y="530" as="targetPoint" />
          </mxGeometry>
        </mxCell>
        <mxCell id="DUddIdQGAG8AFFFB7wVg-6" value="(1,N)" style="resizable=0;html=1;whiteSpace=wrap;align=right;verticalAlign=bottom;" connectable="0" vertex="1" parent="DUddIdQGAG8AFFFB7wVg-5">
          <mxGeometry x="1" relative="1" as="geometry">
            <mxPoint x="34" as="offset" />
          </mxGeometry>
        </mxCell>
        <mxCell id="DUddIdQGAG8AFFFB7wVg-7" value="" style="endArrow=none;html=1;rounded=0;exitX=1;exitY=0.5;exitDx=0;exitDy=0;" edge="1" source="DUddIdQGAG8AFFFB7wVg-4" parent="1" target="DUddIdQGAG8AFFFB7wVg-1">
          <mxGeometry relative="1" as="geometry">
            <mxPoint x="247" y="380" as="sourcePoint" />
            <mxPoint x="293.33333333333326" y="310" as="targetPoint" />
          </mxGeometry>
        </mxCell>
        <mxCell id="DUddIdQGAG8AFFFB7wVg-8" value="(1,1)" style="resizable=0;html=1;whiteSpace=wrap;align=right;verticalAlign=bottom;" connectable="0" vertex="1" parent="DUddIdQGAG8AFFFB7wVg-7">
          <mxGeometry x="1" relative="1" as="geometry">
            <mxPoint as="offset" />
          </mxGeometry>
        </mxCell>
        <mxCell id="DUddIdQGAG8AFFFB7wVg-9" value="" style="endArrow=none;html=1;rounded=0;" edge="1" target="DUddIdQGAG8AFFFB7wVg-10" parent="1" source="DUddIdQGAG8AFFFB7wVg-1">
          <mxGeometry relative="1" as="geometry">
            <mxPoint x="225" y="25" as="sourcePoint" />
            <mxPoint x="285" y="25" as="targetPoint" />
          </mxGeometry>
        </mxCell>
        <mxCell id="DUddIdQGAG8AFFFB7wVg-10" value="&lt;u&gt;Codigo_Unico&lt;/u&gt;" style="ellipse;whiteSpace=wrap;html=1;align=center;" vertex="1" parent="1">
          <mxGeometry x="50" y="20" width="50" height="30" as="geometry" />
        </mxCell>
        <mxCell id="DUddIdQGAG8AFFFB7wVg-13" value="" style="endArrow=none;html=1;rounded=0;" edge="1" target="DUddIdQGAG8AFFFB7wVg-14" parent="1" source="DUddIdQGAG8AFFFB7wVg-1">
          <mxGeometry relative="1" as="geometry">
            <mxPoint x="300" y="35" as="sourcePoint" />
            <mxPoint x="360" y="35" as="targetPoint" />
          </mxGeometry>
        </mxCell>
        <mxCell id="DUddIdQGAG8AFFFB7wVg-14" value="Nombre" style="ellipse;whiteSpace=wrap;html=1;align=center;" vertex="1" parent="1">
          <mxGeometry x="335" y="20" width="50" height="30" as="geometry" />
        </mxCell>
        <mxCell id="DUddIdQGAG8AFFFB7wVg-15" value="" style="endArrow=none;html=1;rounded=0;" edge="1" target="DUddIdQGAG8AFFFB7wVg-16" parent="1" source="DUddIdQGAG8AFFFB7wVg-1">
          <mxGeometry relative="1" as="geometry">
            <mxPoint x="190" y="15" as="sourcePoint" />
            <mxPoint x="250" y="15" as="targetPoint" />
          </mxGeometry>
        </mxCell>
        <mxCell id="DUddIdQGAG8AFFFB7wVg-16" value="Direccion" style="ellipse;whiteSpace=wrap;html=1;align=center;" vertex="1" parent="1">
          <mxGeometry x="220" width="50" height="30" as="geometry" />
        </mxCell>
        <mxCell id="DUddIdQGAG8AFFFB7wVg-17" value="" style="endArrow=none;html=1;rounded=0;" edge="1" target="DUddIdQGAG8AFFFB7wVg-18" parent="1" source="DUddIdQGAG8AFFFB7wVg-1">
          <mxGeometry relative="1" as="geometry">
            <mxPoint x="32.5" y="115" as="sourcePoint" />
            <mxPoint x="92.5" y="115" as="targetPoint" />
          </mxGeometry>
        </mxCell>
        <mxCell id="DUddIdQGAG8AFFFB7wVg-18" value="Telefono" style="ellipse;whiteSpace=wrap;html=1;align=center;" vertex="1" parent="1">
          <mxGeometry x="67.5" y="100" width="50" height="30" as="geometry" />
        </mxCell>
        <mxCell id="DUddIdQGAG8AFFFB7wVg-19" value="" style="endArrow=none;html=1;rounded=0;" edge="1" target="DUddIdQGAG8AFFFB7wVg-20" parent="1" source="DUddIdQGAG8AFFFB7wVg-3">
          <mxGeometry relative="1" as="geometry">
            <mxPoint x="270" y="215" as="sourcePoint" />
            <mxPoint x="330" y="215" as="targetPoint" />
          </mxGeometry>
        </mxCell>
        <mxCell id="DUddIdQGAG8AFFFB7wVg-20" value="&lt;u&gt;ID&lt;/u&gt;" style="ellipse;whiteSpace=wrap;html=1;align=center;" vertex="1" parent="1">
          <mxGeometry x="67.5" y="530" width="50" height="30" as="geometry" />
        </mxCell>
        <mxCell id="DUddIdQGAG8AFFFB7wVg-21" value="" style="endArrow=none;html=1;rounded=0;" edge="1" target="DUddIdQGAG8AFFFB7wVg-22" parent="1" source="DUddIdQGAG8AFFFB7wVg-3">
          <mxGeometry relative="1" as="geometry">
            <mxPoint x="380" y="475" as="sourcePoint" />
            <mxPoint x="440" y="475" as="targetPoint" />
          </mxGeometry>
        </mxCell>
        <mxCell id="DUddIdQGAG8AFFFB7wVg-22" value="Fecha_Inicio_Fin" style="ellipse;whiteSpace=wrap;html=1;align=center;" vertex="1" parent="1">
          <mxGeometry x="380" y="530" width="50" height="30" as="geometry" />
        </mxCell>
        <mxCell id="DUddIdQGAG8AFFFB7wVg-23" value="" style="endArrow=none;html=1;rounded=0;" edge="1" target="DUddIdQGAG8AFFFB7wVg-24" parent="1" source="DUddIdQGAG8AFFFB7wVg-3">
          <mxGeometry relative="1" as="geometry">
            <mxPoint x="270" y="390" as="sourcePoint" />
            <mxPoint x="330" y="275" as="targetPoint" />
          </mxGeometry>
        </mxCell>
        <mxCell id="DUddIdQGAG8AFFFB7wVg-24" value="Precio" style="ellipse;whiteSpace=wrap;html=1;align=center;" vertex="1" parent="1">
          <mxGeometry x="250" y="550" width="50" height="30" as="geometry" />
        </mxCell>
        <mxCell id="DUddIdQGAG8AFFFB7wVg-25" value="" style="endArrow=none;html=1;rounded=0;" edge="1" target="DUddIdQGAG8AFFFB7wVg-26" parent="1" source="DUddIdQGAG8AFFFB7wVg-2">
          <mxGeometry relative="1" as="geometry">
            <mxPoint x="470" y="265" as="sourcePoint" />
            <mxPoint x="530" y="265" as="targetPoint" />
          </mxGeometry>
        </mxCell>
        <mxCell id="DUddIdQGAG8AFFFB7wVg-26" value="&lt;u&gt;Matricula&lt;/u&gt;" style="ellipse;whiteSpace=wrap;html=1;align=center;" vertex="1" parent="1">
          <mxGeometry x="710" y="230" width="50" height="30" as="geometry" />
        </mxCell>
        <mxCell id="DUddIdQGAG8AFFFB7wVg-27" value="" style="endArrow=none;html=1;rounded=0;" edge="1" target="DUddIdQGAG8AFFFB7wVg-28" parent="1" source="DUddIdQGAG8AFFFB7wVg-2">
          <mxGeometry relative="1" as="geometry">
            <mxPoint x="450" y="245" as="sourcePoint" />
            <mxPoint x="510" y="245" as="targetPoint" />
          </mxGeometry>
        </mxCell>
        <mxCell id="DUddIdQGAG8AFFFB7wVg-28" value="modelo" style="ellipse;whiteSpace=wrap;html=1;align=center;" vertex="1" parent="1">
          <mxGeometry x="820" y="250" width="50" height="30" as="geometry" />
        </mxCell>
        <mxCell id="DUddIdQGAG8AFFFB7wVg-29" value="" style="endArrow=none;html=1;rounded=0;" edge="1" target="DUddIdQGAG8AFFFB7wVg-30" parent="1" source="DUddIdQGAG8AFFFB7wVg-2">
          <mxGeometry relative="1" as="geometry">
            <mxPoint x="450" y="245" as="sourcePoint" />
            <mxPoint x="510" y="245" as="targetPoint" />
          </mxGeometry>
        </mxCell>
        <mxCell id="DUddIdQGAG8AFFFB7wVg-30" value="color" style="ellipse;whiteSpace=wrap;html=1;align=center;" vertex="1" parent="1">
          <mxGeometry x="880" y="270" width="50" height="30" as="geometry" />
        </mxCell>
        <mxCell id="DUddIdQGAG8AFFFB7wVg-31" value="" style="endArrow=none;html=1;rounded=0;" edge="1" target="DUddIdQGAG8AFFFB7wVg-32" parent="1" source="DUddIdQGAG8AFFFB7wVg-2">
          <mxGeometry relative="1" as="geometry">
            <mxPoint x="450" y="245" as="sourcePoint" />
            <mxPoint x="510" y="245" as="targetPoint" />
          </mxGeometry>
        </mxCell>
        <mxCell id="DUddIdQGAG8AFFFB7wVg-32" value="marca" style="ellipse;whiteSpace=wrap;html=1;align=center;" vertex="1" parent="1">
          <mxGeometry x="930" y="320" width="50" height="30" as="geometry" />
        </mxCell>
      </root>
    </mxGraphModel>
  </diagram>
</mxfile>
